<svg xmlns="http://www.w3.org/2000/svg" xmlns:xlink="http://www.w3.org/1999/xlink" width="74" height="96.97" viewBox="0 0 74 96.97">
  <defs>
    <style>
      .cls-1 {
        fill: #c52729;
        fill-rule: evenodd;
        filter: url(#filter);
      }
    </style>
    <filter id="filter" x="3175" y="1164.03" width="74" height="96.97" filterUnits="userSpaceOnUse">
      <feFlood result="flood" flood-color="#66a1e2"/>
      <feComposite result="composite" operator="in" in2="SourceGraphic"/>
      <feBlend result="blend" in2="SourceGraphic"/>
    </filter>
  </defs>
  <path class="cls-1" d="M3249,1258.67a31.948,31.948,0,0,0-.25-3.91c-2.02-14.04-9.42-24.03-22.05-30.06-0.96-.46-2.36-0.6-2.82-1.35-0.5-.82-0.1-2.17-0.17-3.29a1.387,1.387,0,0,1,.75-1.4,16.239,16.239,0,0,0,6.62-8.29c0.69-1.96,1.03-4.04,1.56-6.2,3.93-1.28,5.51-3.03,5.52-6.26,0.01-3.19-1.66-5.06-5.82-6.42,0-2.18-.02-4.38.02-6.59a4.772,4.772,0,0,1,.38-1.87,9.823,9.823,0,0,0-.38-8.79c-2.07-4.16-5.32-7.24-8.96-9.92a2.256,2.256,0,0,0-1.95-.12,1.982,1.982,0,0,0-.68,1.62,2.75,2.75,0,0,1-1.27,2.68,6.492,6.492,0,0,1-1.86,1.05c-2.6.72-5.22,1.43-7.87,1.98a26.479,26.479,0,0,1-4.94.53c-7.92.11-9.94-1.02-13.47,4.53-1.42,2.23-.93,4.85.12,6.98a4.7,4.7,0,0,1,.47,1.93l0.02,6.73a6.238,6.238,0,0,0-5.75,4.35c0,0.22-.03.3-0.03,0.4-0.15,4.13,1.32,6.15,5.22,7.28a1.094,1.094,0,0,1,.55.83,17.357,17.357,0,0,0,7.96,13.82,1.419,1.419,0,0,1,.64.75c0.06,1.29.03,2.58,0.03,3.85-0.45.17-.78,0.3-1.12,0.42a37.309,37.309,0,0,0-24.47,34.8c-0.01,1.8.43,2.26,2.18,2.27h69.57C3248.55,1261,3249.04,1260.51,3249,1258.67Zm-16.61-63.54a2.6,2.6,0,0,1,2.47,2.52,2.9,2.9,0,0,1-2.47,3.04v-5.56Zm-40.43,5.55a2.825,2.825,0,0,1-2.51-2.87,2.711,2.711,0,0,1,2.44-2.67,1.778,1.778,0,0,1,.07.39v5.15Zm5.62-24.79a21.185,21.185,0,0,1,3.09-.16,59.314,59.314,0,0,0,15.46-2.01c2.94-.87,5.74-2.05,7.47-4.98,2.64,2.45,5.05,4.91,6.24,8.31,1.38,3.97-.6,7.27-4.76,7.55-3.16.22-6.35,0.04-9.53,0.05-5.5.01-11-.01-16.49,0.06-2.04.03-3.61-.49-4.56-2.48A4.373,4.373,0,0,1,3197.58,1175.89Zm-2.27,29c-0.05-.58-0.05-1.16-0.05-1.74-0.01-5.18,0-10.36,0-15.61,9.97,0.67,19.83.4,29.68,0.32a21.668,21.668,0,0,0,3.93-.78v1.04c0,5.11.01,10.23,0,15.34,0,8.19-5.95,14.44-14.02,14.59a42.794,42.794,0,0,1-8.85-.33C3200.08,1216.6,3195.94,1211.38,3195.31,1204.89Zm25.17,15.96a45.578,45.578,0,0,1-.44,6.4,8.117,8.117,0,0,1-8.64,6.23,8.285,8.285,0,0,1-7.62-8.09c-0.04-1.51,0-3.03,0-4.6Zm-27.02,36.86v-13.06a1.7,1.7,0,0,0-1.28-1.98c-1.24-.27-2.07.49-2.08,1.92-0.01,3.91,0,7.83,0,11.74v1.37h-11.48c-0.16-11.84,8.38-26.11,22.11-30.68a11.83,11.83,0,0,0,6.14,8.52c0.69,0.37.42,0.84,0.32,1.29-1.01,4.51-2,9.04-3.11,13.53a2.924,2.924,0,0,0,.82,3.12c1.31,1.3,2.52,2.71,3.92,4.23h-15.36Zm18.28-1.78c-1.46-1.59-2.88-3.11-4.26-4.66a1.073,1.073,0,0,1-.08-0.78c1-4.33,2.01-8.66,3.06-12.97a1.178,1.178,0,0,1,.86-0.64c0.92-.09,1.85-0.03,2.93-0.03,0.74,3.84,1.26,7.72,2.27,11.47,0.68,2.54.11,4.13-2.05,5.41A23.091,23.091,0,0,0,3211.74,1255.93Zm22.77,1.65v-1.23c-0.01-3.99,0-7.97-.01-11.96-0.01-1.38-.67-2.04-1.86-1.92-0.97.1-1.42,0.7-1.43,1.93v13.15h-15.74c-0.11-.1-0.22-0.19-0.32-0.29a3.117,3.117,0,0,0,.75-0.31c1.35-1.08,2.67-2.18,4.02-3.26a2.01,2.01,0,0,0,.74-2.12c-0.94-4.87-1.86-9.74-2.84-14.6a1.7,1.7,0,0,1,.83-2.17,10.947,10.947,0,0,0,4.89-6.99c0.06-.24.14-0.48,0.2-0.72,12.1,3.91,21.81,17.26,21.98,30.49h-11.21Z" transform="translate(-3175 -1164.03)"/>
</svg>
