<svg xmlns="http://www.w3.org/2000/svg" xmlns:xlink="http://www.w3.org/1999/xlink" width="113" height="81" viewBox="0 0 113 81">
  <defs>
    <style>
      .cls-1 {
        fill: #c52729;
        fill-rule: evenodd;
        filter: url(#filter);
      }
    </style>
    <filter id="filter" x="2894" y="1176" width="113" height="81" filterUnits="userSpaceOnUse">
      <feFlood result="flood" flood-color="#66a1e2"/>
      <feComposite result="composite" operator="in" in2="SourceGraphic"/>
      <feBlend result="blend" in2="SourceGraphic"/>
    </filter>
  </defs>
  <path class="cls-1" d="M2894,1209.01c3.59-6.43,7.16-12.86,10.77-19.28,1.95-3.49,3.95-6.95,5.95-10.42q2.925-5.1,8.05-2.24,2.2,1.245,4.4,2.51c2.69,1.53,3.47,3.28,2.84,6.34a3.449,3.449,0,0,0-.01.53c0.87-.22,1.67-0.4,2.46-0.64,2.44-.76,4.84-1.74,7.34-2.29,4.29-.93,8.63-0.54,12.94.07a12.719,12.719,0,0,0,4.76-.08c4.23-.93,8.38-0.1,12.5.99,2.57,0.69,5.18,1.27,7.78,1.86a5.246,5.246,0,0,0,1.19.01c-0.07-.81-0.17-1.5-0.18-2.19a4.4,4.4,0,0,1,2.11-4c2.09-1.29,4.22-2.55,6.4-3.67a4.938,4.938,0,0,1,6.44,1.97c1.56,2.48,2.97,5.06,4.43,7.61q5.79,10.125,11.56,20.27c0.48,0.85.85,1.77,1.27,2.65v1.77c-0.64,2.26-2.31,3.54-4.31,4.53-1.22.6-2.37,1.33-3.55,2-2.6,1.47-4.83,1.12-6.83-1.07-0.12-.13-0.24-0.26-0.44-0.47a17.082,17.082,0,0,0-4.2,7.01,1.77,1.77,0,0,0,.73,1.25,6.929,6.929,0,0,1-.9,11.39,22.786,22.786,0,0,1-4.49,1.35c-1.28,5.48-2.25,6.31-8.36,6.9-0.45,5.28-4.57,7.88-9.31,6.76-0.51,3.19-2.17,5.47-5.41,6.34s-5.64-.91-8.05-2.78c-2.05,2.42-4.56,3.57-7.65,2.74-3.06-.83-4.66-3.03-5.18-6.04-5.81-.39-6.92-1.21-8.63-6.35a7.18,7.18,0,0,1-5.6-1.23,7.061,7.061,0,0,1-2.82-5,21.309,21.309,0,0,1-2.53-.01,6.886,6.886,0,0,1-5.16-10.23,9.234,9.234,0,0,1,1.31-1.89,2.306,2.306,0,0,0,.36-2.73,17.148,17.148,0,0,0-4.78-6.37c-0.56-.51-1.15-0.98-1.66-1.41a19.886,19.886,0,0,1-2.08,1.87,4.692,4.692,0,0,1-5.11.23c-1.96-1.08-3.89-2.22-5.84-3.32a6.228,6.228,0,0,1-2.51-3.47v-1.77Zm37.65,15.91c4.68-.45,7.55,1.66,8.52,6.25,4.82-.27,6.51.96,8.62,6.34,3.08-.73,5.37.95,7.67,2.66,2.87,2.12,5.78,4.17,8.68,6.24a3.75,3.75,0,0,0,5.31-.54c1.26-1.67.8-3.87-1.1-5.27-1.33-.98-2.68-1.92-4.03-2.89-1.49-1.07-3-2.12-4.47-3.22a1.641,1.641,0,0,1-.41-2.34,1.707,1.707,0,0,1,2.35-.41,7.073,7.073,0,0,1,.63.44c3.36,2.38,6.67,4.82,10.09,7.11a5.342,5.342,0,0,0,2.94.89,3.2,3.2,0,0,0,3.02-2.62,3.44,3.44,0,0,0-1.45-3.76c-2.97-2.16-5.96-4.29-8.94-6.45-1.17-.85-1.44-1.82-0.78-2.68s1.64-.87,2.81-0.03c0.93,0.66,1.86,1.32,2.78,1.99,2.62,1.89,5.22,3.81,7.88,5.65a3.582,3.582,0,0,0,5.75-2.34c0.25-1.63-.61-2.77-1.87-3.72q-9.33-7.11-18.65-14.25c-2.83-2.17-5.63-4.37-8.49-6.5a6.355,6.355,0,0,0-5.53-1.15c-1.49.38-2.98,0.78-4.46,1.19a23.487,23.487,0,0,1-11.1.81c-4.01-.83-7-2.95-7.93-7.14-0.95-4.31,1.76-8.04,5.77-8.07a17.971,17.971,0,0,0,10.71-3.85,3.243,3.243,0,0,0,.45-0.49,30.01,30.01,0,0,0-15.69,1.79,24.588,24.588,0,0,1-5.75,1.27,1.716,1.716,0,0,0-1.54.91q-5.925,10.44-11.9,20.84c-0.14.25-.25,0.52-0.34,0.71,1.49,1.41,3.03,2.68,4.34,4.15,1.29,1.46,2.35,3.13,3.5,4.7C2923.07,1216.57,2930.45,1218.24,2931.65,1224.92Zm52.83-3.72a27.393,27.393,0,0,1,5.23-8.26,1.37,1.37,0,0,0-.14-1.14c-4.06-7.15-8.15-14.28-12.21-21.42a1.4,1.4,0,0,0-1.49-.77,24.647,24.647,0,0,1-5.02-.24c-2.62-.54-5.15-1.45-7.75-2.09-5.27-1.3-10.26-1.19-14.81,2.47a21.373,21.373,0,0,1-13.01,4.77c-1.59.06-2.34,0.92-2.52,2.52a5.1,5.1,0,0,0,3.02,5.17,10.5,10.5,0,0,0,6.55.97c2.96-.5,5.89-1.18,8.8-1.93a10.787,10.787,0,0,1,9.62,1.62c1.12,0.84,2.25,1.67,3.38,2.47,1.26,0.9,2.66,1.67,4.2,1.21a17.8,17.8,0,0,0,3.81-1.89c1.14-.66,2.14-0.66,2.74.18s0.37,1.85-.77,2.6c-1.34.87-2.74,1.63-4.23,2.5C2974.68,1213.64,2979.5,1217.35,2984.48,1221.2Zm-61.41-37.06a6.861,6.861,0,0,0-1.29-1.4c-1.55-.98-3.17-1.86-4.76-2.76-1.62-.91-2.38-0.7-3.31.94-1.9,3.3-3.79,6.62-5.68,9.93q-5,8.745-9.99,17.48c-0.97,1.71-.78,2.43.89,3.39,1.5,0.87,2.99,1.73,4.5,2.57,1.45,0.82,2.28.62,3.1-.8q7.95-13.89,15.88-27.8C2922.64,1185.28,2922.78,1184.82,2923.07,1184.14Zm80.64,25.96a16.858,16.858,0,0,0-.73-1.7q-4.47-7.89-8.99-15.76-3.375-5.925-6.78-11.84c-0.86-1.5-1.66-1.7-3.16-.85-1.44.81-2.87,1.64-4.3,2.46-1.88,1.06-2.06,1.72-.98,3.61q4.65,8.16,9.33,16.33,3.12,5.445,6.22,10.89c0.98,1.71,1.7,1.91,3.38.97,1.6-.9,3.22-1.77,4.77-2.74A6.567,6.567,0,0,0,3003.71,1210.1Zm-87.02,21.03a3.921,3.921,0,0,0,2.5,3.46,3.411,3.411,0,0,0,4.03-1.16c1.44-1.85,2.82-3.75,4.18-5.66a3.583,3.583,0,1,0-5.8-4.2c-1.35,1.77-2.69,3.57-3.96,5.4A12.3,12.3,0,0,0,2916.69,1231.13Zm20.18,0.73a4.008,4.008,0,0,0-2.48-3.4,3.44,3.44,0,0,0-4.06,1.14c-1.44,1.85-2.82,3.75-4.18,5.67a3.579,3.579,0,1,0,5.81,4.17c1.33-1.75,2.66-3.51,3.9-5.33A13.071,13.071,0,0,0,2936.87,1231.86Zm9.3,21.95a7.914,7.914,0,0,0,2.39-1.35c1.69-2.06,3.28-4.22,4.76-6.44a3.393,3.393,0,0,0-.9-4.52,3.338,3.338,0,0,0-4.68.3,57.9,57.9,0,0,0-4.86,6.64C2941.51,1250.7,2943.4,1253.57,2946.17,1253.81Zm-4.49-19.3c-0.05-.09-0.11-0.19-0.16-0.28a9.206,9.206,0,0,0-2.51,1.53,76.365,76.365,0,0,0-4.57,6.18,3.539,3.539,0,0,0,5.62,4.24,64.829,64.829,0,0,0,4.72-6.47A3.466,3.466,0,0,0,2941.68,1234.51Zm12.18,16.74c0.95,0.66,1.78,1.33,2.69,1.85a3.566,3.566,0,0,0,4.41-.74,3.349,3.349,0,0,0,.24-4.34,38.6,38.6,0,0,0-4.05-3.34C2956.98,1247.56,2955.17,1249.17,2953.86,1251.25Z" transform="translate(-2894 -1176)"/>
</svg>
