<svg xmlns="http://www.w3.org/2000/svg" width="54" height="68.03" viewBox="0 0 54 68.03">
  <defs>
    <style>
      .cls-1 {
        fill: #66a1e2;
        fill-rule: evenodd;
      }
    </style>
  </defs>
  <path class="cls-1" d="M3198.6,1507.44c1.51,1.52,3.04,3.04,4.54,4.56a2.27,2.27,0,0,1,.21,3.36,2.152,2.152,0,0,1-3.24-.22c-2.74-2.77-5.47-5.53-8.19-8.31-1.23-1.26-1.23-2.41-.01-3.65q4.05-4.125,8.12-8.24c1.15-1.16,2.44-1.25,3.38-.25,0.89,0.94.77,2.25-.33,3.36q-1.89,1.935-3.8,3.87c-0.23.23-.43,0.48-0.81,0.89h28.92c1.48,0,2.33.57,2.56,1.68a2.178,2.178,0,0,1-2.27,2.7c-3.86.01-7.72,0-11.58,0h-17.43C3198.65,1507.28,3198.62,1507.36,3198.6,1507.44Z" transform="translate(-3184 -1448)"/>
  <path class="cls-1" d="M3200.85,1448c0.84,0.13,1.68.21,2.5,0.41a16.62,16.62,0,0,1,11.58,9.45c0.1,0.21.19,0.42,0.29,0.62a0.449,0.449,0,0,0,.11.13c10.47-4.4,18.93,2.28,21.59,9.27a16.3,16.3,0,0,1-7.77,20.28c-7.36,3.99-18.19,1.66-22.44-8.64a17.546,17.546,0,0,1-7.09,1.31,16.007,16.007,0,0,1-15.4-13.72,16.265,16.265,0,0,1,14.7-18.96,6.634,6.634,0,0,0,.75-0.15h1.18Zm33.61,25.41a12.468,12.468,0,0,0-12.8-12.59c-7.09,0-12.55,5.63-12.47,13.01,0.07,7.46,5.61,12.52,12.8,12.61C3229.04,1486.53,3234.46,1480.81,3234.46,1473.41Zm-34.42-21.72c-0.67.06-1.35,0.06-2.02,0.17a12.887,12.887,0,0,0-10.4,14.86c1.26,8.01,10.22,12.9,17.49,9.56a0.864,0.864,0,0,0,.66-1,15.675,15.675,0,0,1,5.79-14.18,0.979,0.979,0,0,0,.33-1.3A12.353,12.353,0,0,0,3200.04,1451.69Zm18.99,30.6a4.188,4.188,0,0,0-.52-0.57c-0.9-.73-1.88-1.37-2.71-2.17a1.8,1.8,0,0,1-.05-2.79,1.816,1.816,0,0,1,2.68.36,5.866,5.866,0,0,0,3.29,1.97,1.653,1.653,0,0,0,2.02-.83,1.264,1.264,0,0,0-.35-1.81c-0.54-.37-1.13-0.65-1.68-1a21.178,21.178,0,0,1-2.86-1.95c-2.44-2.21-2.31-5.23.23-7.31a5.4,5.4,0,0,1,1.44-.89,2.446,2.446,0,0,0,1.91-1.6,1.513,1.513,0,0,1,1.97-.72,1.576,1.576,0,0,1,1.22,1.65,1.355,1.355,0,0,0,.67,1.29,10.447,10.447,0,0,1,1.91,2.13,1.761,1.761,0,0,1-.64,2.58,1.705,1.705,0,0,1-2.43-.82c-0.59-1.27-1.69-1.44-2.82-1.48a1.588,1.588,0,0,0-1.56,1.34,1.217,1.217,0,0,0,.74,1.47c0.69,0.44,1.45.77,2.12,1.23a15.538,15.538,0,0,1,2.67,2.08,4.2,4.2,0,0,1-.06,6.2,17.644,17.644,0,0,1-2.97,1.89,1.754,1.754,0,0,0-.68.7,1.883,1.883,0,0,1-2.02,1.34A2,2,0,0,1,3219.03,1482.29Zm-21.67-9.1a2.778,2.778,0,0,0-.46-0.54c-0.94-.76-1.97-1.43-2.84-2.27a1.8,1.8,0,1,1,2.63-2.43,5.92,5.92,0,0,0,3.35,2.02,1.672,1.672,0,0,0,2.09-1,1.189,1.189,0,0,0-.38-1.59c-0.53-.37-1.12-0.66-1.66-1.02a22.4,22.4,0,0,1-3.01-2.04c-2.35-2.17-2.22-5.14.23-7.19a5.368,5.368,0,0,1,1.5-.95,2.481,2.481,0,0,0,1.9-1.61,1.518,1.518,0,0,1,1.97-.72,1.583,1.583,0,0,1,1.22,1.65,1.409,1.409,0,0,0,.67,1.3,10.564,10.564,0,0,1,1.97,2.2,1.752,1.752,0,0,1-.7,2.5,1.678,1.678,0,0,1-2.39-.75,2.77,2.77,0,0,0-2.7-1.55,1.6,1.6,0,0,0-1.66,1.2,1.208,1.208,0,0,0,.64,1.58c0.54,0.36,1.15.61,1.68,0.99a21.426,21.426,0,0,1,3.29,2.5,4.2,4.2,0,0,1,.02,5.9,6.079,6.079,0,0,1-3.09,2.01,0.924,0.924,0,0,0-.78.74,1.746,1.746,0,0,1-1.98,1.34A1.96,1.96,0,0,1,3197.36,1473.19Z" transform="translate(-3184 -1448)"/>
</svg>
