<svg xmlns="http://www.w3.org/2000/svg" xmlns:xlink="http://www.w3.org/1999/xlink" width="109" height="98" viewBox="0 0 109 98">
  <defs>
    <style>
      .cls-1 {
        fill: #c52729;
        fill-rule: evenodd;
        filter: url(#filter);
      }
    </style>
    <filter id="filter" x="3420" y="1164" width="109" height="98" filterUnits="userSpaceOnUse">
      <feFlood result="flood" flood-color="#66a1e2"/>
      <feComposite result="composite" operator="in" in2="SourceGraphic"/>
      <feBlend result="blend" in2="SourceGraphic"/>
    </filter>
  </defs>
  <path class="cls-1" d="M3469.39,1262c-1.62-.18-3.24-0.34-4.85-0.54-3.15-.41-5.94-1.86-8.77-3.16q-15.48-7.1-30.96-14.18a8.218,8.218,0,0,1-3.65-2.86,6.662,6.662,0,0,1,4.1-10,12.872,12.872,0,0,1,7.12.33c5.89,1.69,11.78,3.39,17.75,5.11,0.1-.29.22-0.54,0.29-0.8a7.983,7.983,0,0,1,7.84-6.47c4.33-.14,8.66-0.06,12.98-0.12a2.1,2.1,0,0,0,1.33-.43c4.51-4.12,9.93-6.14,15.82-7.02a56.253,56.253,0,0,1,17.28.09,1.371,1.371,0,0,0,1.1-.46,5.605,5.605,0,0,1,4.82-2.47c3.86,0,7.73.01,11.6,0a5.733,5.733,0,0,1,5.58,3.54,2.442,2.442,0,0,0,.23.33v28.58c-1.09,2.15-2.68,3.61-5.2,3.64-4.11.04-8.23,0.03-12.34,0a5.111,5.111,0,0,1-4.3-2.19,1.021,1.021,0,0,0-1.39-.44q-5.415,1.755-10.85,3.41c-5.29,1.63-10.55,3.35-15.88,4.8a72.393,72.393,0,0,1-7.95,1.31h-1.7Zm36.55-36.6a2.775,2.775,0,0,0-.4-0.15,50.58,50.58,0,0,0-17.57.06,25.445,25.445,0,0,0-14.05,7.05,1.824,1.824,0,0,1-1.22.39c-4.61.01-9.23-.03-13.84-0.04a5.215,5.215,0,0,0-5.36,5.53c0.12,2.28,1,3.13,3.24,3.13,6.42,0,12.84.01,19.26-.01a1.777,1.777,0,0,1,1.9.87,2.052,2.052,0,0,1,.08,1.67,2.677,2.677,0,0,1-1.8.8c-6.39.06-12.77-.06-19.15,0.07-3.14.07-5.03-1.46-6.45-4.02a1.973,1.973,0,0,0-1.06-.87c-6.09-1.76-12.18-3.55-18.31-5.17a15.956,15.956,0,0,0-4.93-.38,3.042,3.042,0,0,0-2.85,2.86,3.45,3.45,0,0,0,1.75,3.72c0.46,0.26.95,0.47,1.43,0.69q12.96,5.955,25.92,11.89a99.766,99.766,0,0,0,9.44,4.15,26.734,26.734,0,0,0,16.15.11c9.12-2.66,18.14-5.62,27.22-8.41a0.965,0.965,0,0,0,.67-1.22q-0.045-10.845-.07-21.69v-1.03Zm3.29,11.7h0c0,4.15-.01,8.3,0,12.45,0,1.77.8,2.56,2.53,2.56q5.64,0.015,11.27,0c2.03,0,2.75-.73,2.75-2.78v-24.48c0-1.92-.8-2.74-2.71-2.74q-5.64-.015-11.27,0c-1.8.01-2.57,0.8-2.57,2.64v12.35ZM3420,1176.04c0.3-1.05.53-2.13,0.91-3.16a13.6,13.6,0,0,1,15.59-8.55,13.726,13.726,0,1,1-16.31,15.63,2.819,2.819,0,0,0-.19-0.48v-3.44Zm3.41,1.64a10.215,10.215,0,1,0,10.21-10.23A10.3,10.3,0,0,0,3423.41,1177.68Zm18.73,24.93a22.991,22.991,0,1,1,22.94,23.29A23.146,23.146,0,0,1,3442.14,1202.61Zm22.95,19.84a19.767,19.767,0,1,0-19.54-19.77A19.7,19.7,0,0,0,3465.09,1222.45Zm31.58-58.44a13.751,13.751,0,1,1-13.65,13.81A13.748,13.748,0,0,1,3496.67,1164.01Zm10.19,13.79a10.22,10.22,0,1,0-10.26,10.27A10.323,10.323,0,0,0,3506.86,1177.8Zm-74.12-5.43c0.04-.74,0-1.69.96-1.59a2.289,2.289,0,0,1,1.08,1.48,16.36,16.36,0,0,1,1.97,1.19,0.922,0.922,0,0,1,.12,1.55,0.911,0.911,0,0,1-1.45-.29,8.64,8.64,0,0,0-.76-0.81c0,1.18-.04,2.09.04,2.99a1.041,1.041,0,0,0,.67.62c1.55,0.57,2.08,1.17,2.14,2.57a2.988,2.988,0,0,1-1.86,2.98c-0.62.3-1.22,0.44-1.19,1.35a0.863,0.863,0,0,1-1.69-.08,1.247,1.247,0,0,0-1.04-1.23,3.482,3.482,0,0,1-1.43-1.17,2.408,2.408,0,0,1,.12-1.29,4.48,4.48,0,0,1,1.29.26,2.727,2.727,0,0,1,.68.89l0.29-.06c0-1.04.03-2.08-.03-3.11a0.981,0.981,0,0,0-.61-0.49c-1.2-.47-2.28-1-2.18-2.61a3.257,3.257,0,0,1,2.49-2.97C3432.45,1172.51,3432.55,1172.46,3432.74,1172.37Zm1.88,9.22c0.12,0.05.24,0.1,0.36,0.14a4.368,4.368,0,0,0,.63-1.54,3.6,3.6,0,0,0-.73-1.35c-0.08.05-.17,0.11-0.26,0.17v2.58Zm-1.94-5.09v-2.78C3431.3,1174.6,3431.32,1175.76,3432.68,1176.5Zm30.75,33.61c0-1.93.02-3.86-.03-5.79a1.318,1.318,0,0,0-.62-0.78,4.064,4.064,0,0,0-.99-0.38c-2.65-.94-3.78-2.32-3.89-4.75a5.514,5.514,0,0,1,3.45-5.63c0.64-.29,1.33-0.48,2-0.71,0.3-2.54.68-3.17,1.84-3.13s1.55,0.74,1.67,2.82c1.3,0.8,2.49,1.51,3.66,2.27a2.53,2.53,0,0,1,.67.81,1.757,1.757,0,0,1-.47,2.46,1.8,1.8,0,0,1-2.51-.57c-0.36-.49-0.75-0.95-1.12-1.43-0.11.05-.21,0.09-0.32,0.14,0,1.91-.02,3.82.03,5.73a1.194,1.194,0,0,0,.71.61c0.74,0.32,1.55.5,2.26,0.88,3.67,1.93,3.12,7.34-.23,9.44a4.458,4.458,0,0,1-1.63.75,1.236,1.236,0,0,0-1.17,1.61,1.543,1.543,0,0,1-1.33,1.88,2.842,2.842,0,0,1-1.79-.79,1.907,1.907,0,0,1-.25-1.31,1.043,1.043,0,0,0-.97-1.3,5.733,5.733,0,0,1-3.78-2.57,1.739,1.739,0,0,1,.56-2.51,1.837,1.837,0,0,1,2.57.7c0.39,0.62.88,1.18,1.32,1.77C3463.19,1210.26,3463.31,1210.19,3463.43,1210.11Zm3.56-5.27v5.32a2.942,2.942,0,0,0,1.97-3.04A2.44,2.44,0,0,0,3466.99,1204.84Zm-3.56-4.47v-5.31a2.67,2.67,0,0,0-2.05,2.77C3461.4,1199.18,3461.95,1199.88,3463.43,1200.37Zm34.43-28.11a22.725,22.725,0,0,1,1.94,1.23,0.939,0.939,0,1,1-1.33,1.25c-0.16-.21-0.36-0.41-0.69-0.78v3.34c0.16,0.06.35,0.16,0.55,0.22a2.544,2.544,0,0,1,2.19,2.4,3.086,3.086,0,0,1-1.81,3.12c-0.66.3-1.27,0.5-1.24,1.42a1.033,1.033,0,0,1-.82.6,1.137,1.137,0,0,1-.85-0.69,1.3,1.3,0,0,0-1.11-1.29,3.311,3.311,0,0,1-1.41-1.21,1.3,1.3,0,0,1,.26-1.22,1.427,1.427,0,0,1,1.16.21,7.161,7.161,0,0,0,1,.86c0-1.02.02-2.04-.03-3.05a0.928,0.928,0,0,0-.57-0.52c-1.24-.49-2.37-1.03-2.21-2.69a3.163,3.163,0,0,1,2.53-2.93,2.046,2.046,0,0,0,.32-0.17c0.08-.7-0.03-1.71,1.03-1.58,0.44,0.06.79,0.84,1.19,1.3A1.618,1.618,0,0,0,3497.86,1172.26Zm-0.21,9.34c0.12,0.05.23,0.1,0.34,0.14a1.953,1.953,0,0,0-.04-2.91c-0.1.04-.2,0.09-0.3,0.13v2.64Zm-1.95-5.09v-2.79C3494.32,1174.59,3494.33,1175.75,3495.7,1176.51Z" transform="translate(-3420 -1164)"/>
</svg>
