<svg xmlns="http://www.w3.org/2000/svg" width="113.177" height="62.576" viewBox="0 0 113.177 62.576">
  <g id="Group_1" data-name="Group 1" transform="translate(-479 -493)">
    <path id="Path_1" data-name="Path 1" d="M3473.06,1476.01a23.159,23.159,0,1,0-3.86,14.63s-1.03-4.18-3.64-.8a19.487,19.487,0,0,1-15.47,7.61,19.765,19.765,0,1,1,19.46-22.4m-21.12,10.06c0-1.93.02-3.86-.03-5.79a1.319,1.319,0,0,0-.62-.78,4.061,4.061,0,0,0-.99-.38c-2.65-.94-3.78-2.32-3.89-4.75a5.514,5.514,0,0,1,3.45-5.63c.64-.29,1.33-.48,2-.71.3-2.54.68-3.17,1.84-3.13s1.55.74,1.67,2.82c1.3.8,2.49,1.51,3.66,2.27a2.528,2.528,0,0,1,.67.81,1.757,1.757,0,0,1-.469,2.46,1.8,1.8,0,0,1-2.51-.57c-.36-.49-.75-.95-1.12-1.43-.11.05-.21.09-.32.14,0,1.91-.02,3.82.03,5.73a1.2,1.2,0,0,0,.71.61c.74.32,1.55.5,2.26.88,3.66,1.93,3.12,7.34-.23,9.44a4.458,4.458,0,0,1-1.63.75,1.236,1.236,0,0,0-1.17,1.61,1.543,1.543,0,0,1-1.33,1.88,2.843,2.843,0,0,1-1.79-.79,1.908,1.908,0,0,1-.25-1.31,1.043,1.043,0,0,0-.97-1.3,5.733,5.733,0,0,1-3.78-2.57,1.739,1.739,0,0,1,.56-2.51,1.837,1.837,0,0,1,2.57.7c.39.62.88,1.18,1.32,1.77C3448.19,1485.26,3448.31,1485.19,3448.43,1485.11Zm3.56-5.27v5.32a2.943,2.943,0,0,0,1.97-3.04,2.44,2.44,0,0,0-1.97-2.28Zm-3.56-4.47v-5.31a2.67,2.67,0,0,0-2.05,2.77C3446.4,1474.18,3446.94,1474.88,3448.43,1475.37Z" transform="translate(-2947.804 -961.581)" fill="#66a1e2" fill-rule="evenodd"/>
    <path id="Rounded_Rectangle_665" data-name="Rounded Rectangle 665" d="M3470.95,1461.44s6.15-1.2,9.3-.77c1.61.21,3.22.48,4.83.73.55.14,1.1.29,1.65.44a73.438,73.438,0,0,1,7.34,3.32c4.78,2.78,9.42,5.81,14.1,8.75q4.83,3.03,9.61,6.11a1.034,1.034,0,0,0,1.47-.06,5.1,5.1,0,0,1,4.72-1.01q5.97,1.56,11.93,3.2c2.42.68,3.58,2.51,4.08,4.87q-3.7,13.815-7.4,27.62a2,2,0,0,0-.31.26,5.737,5.737,0,0,1-6.32,1.98c-3.73-1.02-7.47-2-11.21-3.01a5.615,5.615,0,0,1-4.02-3.63,1.339,1.339,0,0,0-.94-.73,56.345,56.345,0,0,1-16.73-4.39c-5.46-2.38-10.19-5.73-13.47-10.88a2.154,2.154,0,0,0-1.18-.77c-4.16-1.17-8.37-2.22-12.51-3.47a8,8,0,0,1-5.91-8.29c0-.27-.05-.54-.08-.85a6.336,6.336,0,0,1,1.49-3.79c2.04-2.11,4.26-3.1,7.27-2.23,6.14,1.78,12.34,3.33,18.5,5.04a2.634,2.634,0,0,1,1.53,1.24,2.048,2.048,0,0,1-.5,1.59,1.772,1.772,0,0,1-2.06.35c-6.21-1.68-12.41-3.33-18.62-5-2.17-.58-3.24.01-3.95,2.19a5.225,5.225,0,0,0,3.76,6.73c4.46,1.19,8.93,2.34,13.38,3.54a1.853,1.853,0,0,1,1.08.7,25.558,25.558,0,0,0,11.76,10.46,50.829,50.829,0,0,0,16.97,4.6,2.587,2.587,0,0,0,.42-.03c.09-.32.18-.66.27-1q2.835-10.47,5.69-20.95a.96.96,0,0,0-.34-1.35c-8.05-5.06-16.01-10.25-24.13-15.18a26.624,26.624,0,0,0-15.64-4.08A81.18,81.18,0,0,0,3468,1465l-2-2Zm46.2,34.35h-.01q1.62-6.015,3.23-12.04c.46-1.71,1.43-2.27,3.11-1.82q5.46,1.455,10.9,2.92c1.96.53,2.46,1.42,1.93,3.4q-3.165,11.835-6.34,23.66c-.5,1.86-1.48,2.44-3.33,1.95q-5.445-1.44-10.9-2.92c-1.74-.47-2.27-1.44-1.79-3.22q1.59-5.97,3.2-11.93Zm-.01,0" transform="translate(-2947.804 -961.581)" fill="#66a1e2" fill-rule="evenodd"/>
  </g>
</svg>
